<?xml version="1.0" encoding="UTF-8" standalone="no"?><!DOCTYPE svg PUBLIC "-//W3C//DTD SVG 1.1//EN" "http://www.w3.org/Graphics/SVG/1.1/DTD/svg11.dtd"><svg width="100%" height="100%" viewBox="0 0 500 500" version="1.1" xmlns="http://www.w3.org/2000/svg" xmlns:xlink="http://www.w3.org/1999/xlink" xml:space="preserve" xmlns:serif="http://www.serif.com/" style="fill-rule:evenodd;clip-rule:evenodd;stroke-linejoin:round;stroke-miterlimit:2;"><path d="M0.861,229.124c1.024,-12.364 2.95,-24.475 5.711,-36.265l40.848,9.807c-2.256,9.677 -3.835,19.612 -4.685,29.754l-41.873,-3.295Zm6.3,-38.725c2.94,-12.001 6.747,-23.663 11.351,-34.915l38.81,16.075c-3.768,9.237 -6.891,18.804 -9.313,28.646l-40.848,-9.807Zm12.321,-37.251c4.778,-11.347 10.37,-22.268 16.702,-32.69l35.811,21.945c-5.187,8.557 -9.774,17.517 -13.704,26.821l-38.81,-16.075Zm18.027,-34.846c6.48,-10.427 13.706,-20.342 21.603,-29.672l31.932,27.273c-6.471,7.661 -12.399,15.796 -17.724,24.345l-35.811,-21.945Zm23.247,-31.595c8.007,-9.269 16.682,-17.944 25.951,-25.951l27.273,31.932c-7.598,6.577 -14.715,13.694 -21.292,21.292l-31.932,-27.273Zm27.874,-27.595c9.33,-7.897 19.246,-15.123 29.672,-21.603l21.945,35.811c-8.549,5.325 -16.683,11.253 -24.345,17.724l-27.273,-31.932Zm31.828,-22.927c10.423,-6.332 21.344,-11.924 32.69,-16.702l16.075,38.81c-9.304,3.929 -18.264,8.517 -26.821,13.704l-21.945,-35.811Zm35.027,-17.672c11.253,-4.604 22.914,-8.411 34.915,-11.351l9.807,40.848c-9.842,2.422 -19.41,5.545 -28.646,9.313l-16.075,-38.81Zm37.375,-11.94c11.79,-2.761 23.901,-4.687 36.265,-5.711l3.295,41.873c-10.141,0.85 -20.077,2.43 -29.754,4.685l-9.807,-40.848Zm38.787,-5.907c6.061,-0.441 12.182,-0.665 18.354,-0.665c6.173,0 12.293,0.224 18.354,0.665l-3.295,41.873c-4.974,-0.357 -9.995,-0.538 -15.059,-0.538c-5.064,0 -10.085,0.181 -15.059,0.538l-3.295,-41.873Zm39.231,0.196c12.364,1.024 24.475,2.95 36.265,5.711l-9.807,40.848c-9.677,-2.256 -19.612,-3.835 -29.754,-4.685l3.295,-41.873Zm38.725,6.3c12.001,2.94 23.663,6.747 34.915,11.351l-16.075,38.81c-9.237,-3.768 -18.804,-6.891 -28.646,-9.313l9.807,-40.848Zm37.251,12.321c11.347,4.778 22.268,10.37 32.69,16.702l-21.945,35.811c-8.557,-5.187 -17.517,-9.774 -26.821,-13.704l16.075,-38.81Zm34.846,18.027c10.427,6.48 20.342,13.706 29.672,21.603l-27.273,31.932c-7.661,-6.471 -15.796,-12.399 -24.345,-17.724l21.945,-35.811Zm31.595,23.247c9.269,8.007 17.944,16.682 25.951,25.951l-31.932,27.273c-6.577,-7.598 -13.694,-14.715 -21.292,-21.292l27.273,-31.932Zm27.595,27.874c7.897,9.33 15.123,19.246 21.603,29.672l-35.811,21.945c-5.325,-8.549 -11.253,-16.683 -17.724,-24.345l31.932,-27.273Zm22.927,31.828c6.332,10.423 11.924,21.344 16.702,32.69l-38.81,16.075c-3.929,-9.304 -8.517,-18.264 -13.704,-26.821l35.811,-21.945Zm17.672,35.027c4.604,11.253 8.411,22.914 11.351,34.915l-40.848,9.807c-2.422,-9.842 -5.545,-19.41 -9.313,-28.646l38.81,-16.075Zm11.94,37.375c2.761,11.79 4.687,23.901 5.711,36.265l-41.873,3.295c-0.85,-10.141 -2.43,-20.077 -4.685,-29.754l40.848,-9.807Zm5.907,38.787c0.441,6.061 0.665,12.182 0.665,18.354c0,6.173 -0.224,12.293 -0.665,18.354l-41.873,-3.295c0.357,-4.974 0.538,-9.995 0.538,-15.059c0,-5.064 -0.181,-10.085 -0.538,-15.059l41.873,-3.295Zm-0.196,39.231c-1.024,12.364 -2.95,24.475 -5.711,36.265l-40.848,-9.807c2.256,-9.677 3.835,-19.612 4.685,-29.754l41.873,3.295Zm-6.3,38.725c-2.94,12.001 -6.747,23.663 -11.351,34.915l-38.81,-16.075c3.768,-9.237 6.891,-18.804 9.313,-28.646l40.848,9.807Zm-12.321,37.251c-4.778,11.347 -10.37,22.268 -16.702,32.69l-35.811,-21.945c5.187,-8.557 9.774,-17.517 13.704,-26.821l38.81,16.075Zm-18.027,34.846c-6.48,10.427 -13.706,20.342 -21.603,29.672l-31.932,-27.273c6.471,-7.661 12.399,-15.796 17.724,-24.345l35.811,21.945Zm-23.247,31.595c-8.007,9.269 -16.682,17.944 -25.951,25.951l-27.273,-31.932c7.598,-6.577 14.715,-13.694 21.292,-21.292l31.932,27.273Zm-27.874,27.595c-9.33,7.897 -19.246,15.123 -29.672,21.603l-21.945,-35.811c8.549,-5.325 16.683,-11.253 24.345,-17.724l27.273,31.932Zm-31.828,22.927c-10.423,6.332 -21.344,11.924 -32.69,16.702l-16.075,-38.81c9.304,-3.929 18.264,-8.517 26.821,-13.704l21.945,35.811Zm-35.027,17.672c-11.253,4.604 -22.914,8.411 -34.915,11.351l-9.807,-40.848c9.842,-2.422 19.41,-5.545 28.646,-9.313l16.075,38.81Zm-37.375,11.94c-11.79,2.761 -23.901,4.687 -36.265,5.711l-3.295,-41.873c10.141,-0.85 20.077,-2.43 29.754,-4.685l9.807,40.848Zm-38.787,5.907c-6.061,0.441 -12.182,0.665 -18.354,0.665c-6.173,0 -12.293,-0.224 -18.354,-0.665l3.295,-41.873c4.974,0.357 9.995,0.538 15.059,0.538c5.064,0 10.085,-0.181 15.059,-0.538l3.295,41.873Zm-39.231,-0.196c-12.364,-1.024 -24.475,-2.95 -36.265,-5.711l9.807,-40.848c9.677,2.256 19.612,3.835 29.754,4.685l-3.295,41.873Zm-38.725,-6.3c-12.001,-2.94 -23.663,-6.747 -34.915,-11.351l16.075,-38.81c9.237,3.768 18.804,6.891 28.646,9.313l-9.807,40.848Zm-37.251,-12.321c-11.347,-4.778 -22.268,-10.37 -32.69,-16.702l21.945,-35.811c8.557,5.187 17.517,9.774 26.821,13.704l-16.075,38.81Zm-34.846,-18.027c-10.427,-6.48 -20.342,-13.706 -29.672,-21.603l27.273,-31.932c7.661,6.471 15.796,12.399 24.345,17.724l-21.945,35.811Zm-31.595,-23.247c-9.269,-8.007 -17.944,-16.682 -25.951,-25.951l31.932,-27.273c6.577,7.598 13.694,14.715 21.292,21.292l-27.273,31.932Zm-27.595,-27.874c-7.897,-9.33 -15.123,-19.246 -21.603,-29.672l35.811,-21.945c5.325,8.549 11.253,16.683 17.724,24.345l-31.932,27.273Zm-22.927,-31.828c-6.332,-10.423 -11.924,-21.344 -16.702,-32.69l38.81,-16.075c3.929,9.304 8.517,18.264 13.704,26.821l-35.811,21.945Zm-17.672,-35.027c-4.604,-11.253 -8.411,-22.914 -11.351,-34.915l40.848,-9.807c2.422,9.842 5.545,19.41 9.313,28.646l-38.81,16.075Zm-11.94,-37.375c-2.761,-11.79 -4.687,-23.901 -5.711,-36.265l41.873,-3.295c0.85,10.141 2.43,20.077 4.685,29.754l-40.848,9.807Zm-5.907,-38.787c-0.441,-6.061 -0.665,-12.182 -0.665,-18.354c0,-6.173 0.224,-12.293 0.665,-18.354l41.873,3.295c-0.357,4.974 -0.538,9.995 -0.538,15.059c-0,5.064 0.181,10.085 0.538,15.059l-41.873,3.295Z"/></svg>